<svg width="32" height="40" viewBox="0 0 32 40" fill="none" xmlns="http://www.w3.org/2000/svg">
<path d="M23.2004 17.6525C23.2004 21.5842 20.0134 24.7713 16.0821 24.7713C12.1508 24.7713 8.96373 21.5842 8.96373 17.6525C8.96373 13.7209 12.1508 10.5338 16.0821 10.5338C20.0134 10.5338 23.2004 13.7209 23.2004 17.6525Z" stroke="#7558FC" stroke-width="3.25107"/>
<mask id="path-2-inside-1_170_503" fill="white">
<path d="M25.6638 25.5733C25.6638 28.1147 24.6543 30.552 22.8573 32.3491C21.0604 34.1461 18.6232 35.1557 16.0819 35.1557C13.5406 35.1557 11.1034 34.1461 9.30647 32.3491C7.50952 30.552 6.5 28.1147 6.5 25.5733L9.37457 25.5733C9.37457 27.3523 10.0812 29.0584 11.3391 30.3164C12.597 31.5743 14.303 32.281 16.0819 32.281C17.8608 32.281 19.5668 31.5743 20.8247 30.3164C22.0826 29.0584 22.7892 27.3523 22.7892 25.5733H25.6638Z"/>
</mask>
<path d="M25.6638 25.5733C25.6638 28.1147 24.6543 30.552 22.8573 32.3491C21.0604 34.1461 18.6232 35.1557 16.0819 35.1557C13.5406 35.1557 11.1034 34.1461 9.30647 32.3491C7.50952 30.552 6.5 28.1147 6.5 25.5733L9.37457 25.5733C9.37457 27.3523 10.0812 29.0584 11.3391 30.3164C12.597 31.5743 14.303 32.281 16.0819 32.281C17.8608 32.281 19.5668 31.5743 20.8247 30.3164C22.0826 29.0584 22.7892 27.3523 22.7892 25.5733H25.6638Z" stroke="#7558FC" stroke-width="6.50215" mask="url(#path-2-inside-1_170_503)"/>
<path d="M19.6226 5.5H24.9336V10.8347" stroke="#7558FC" stroke-width="2.57521"/>
</svg>
